# xmcd
#
# Track frame offsets:
# 150
# 11600
# 22880
# 34605
# 46195
# 56477
# 67500
# 78350
# 91110
# 102092
# 114487
# 125040
# 136635
# 147895
# 162240
# 174342
# 186160
# 199755
# 208830
# 219977
# 229995
# 240380
# 250820
# 260952
# 272447
# 283112
# 293867
# 303925
# 315220
# 325205
# 334437
#
# Disc length: 4562 seconds
#
#
# Revision: 0
# Processed by: cddbd v1.4PL0 Copyright (c) Steve Scherf et al.
# Submitted via: FreeRIP 2.10 
#
DISCID=ad11d01f
DTITLE=Wanda Jackson - The Singles 1954-1958
DYEAR=1900
DGENRE=Country
TTITLE0=You Can't Have My Love
TTITLE1=Lovin' Country Style
TTITLE2=If You Know What I Know
TTITLE3=The Right to Love
TTITLE4=If You Dont Somebody Else Will
TTITLE5=You'd Be the First One to Know
TTITLE6=Tears at the Grand Ole Opry
TTITLE7=Nobody's Darlin' but Mine
TTITLE8=It's the Same Old World
TTITLE9=Don't do the Things He'd Do
TTITLE10=Wasted
TTITLE11=I Cried Again
TTITLE12=I Gotta Know
TTITLE13=Half as a Good Girl
TTITLE14=Hot Dog! That Made Him Mad
TTITLE15=Silver Thread and Golden Needles
TTITLE16=Cryin' Through the Night
TTITLE17=Baby Loves Him
TTITLE18=Let Me Explain
TTITLE19=Don'a Wan'a
TTITLE20=Cool Love
TTITLE21=Did You Miss Me?
TTITLE22=Fujiyama Mama
TTITLE23=No Wedding Bells for Joe
TTITLE24=The Heart You Could Have
TTITLE25=You Won't Forget (About Me)
TTITLE26=Honey Bop
TTITLE27=Just a Queen for a Day
TTITLE28=Mean Mean Man
TTITLE29=Our Song
TTITLE30=Rock Your Baby
EXTD=Rockateer 
EXTT0=
EXTT1=
EXTT2=
EXTT3=
EXTT4=
EXTT5=
EXTT6=
EXTT7=
EXTT8=
EXTT9=
EXTT10=
EXTT11=
EXTT12=
EXTT13=
EXTT14=
EXTT15=
EXTT16=
EXTT17=
EXTT18=
EXTT19=
EXTT20=
EXTT21=
EXTT22=
EXTT23=
EXTT24=
EXTT25=
EXTT26=
EXTT27=
EXTT28=
EXTT29=
EXTT30=
PLAYORDER=
